<svg xmlns="http://www.w3.org/2000/svg" xmlnsXlink="http://www.w3.org/1999/xlink" width="2085" height="1913" viewBox="0 0 2085 1913">
  <defs>
    <clipPath id="clip-Web_1920_1">
      <rect width="2085" height="1913"/>
    </clipPath>
  </defs>
  <g id="Web_1920_1" data-name="Web 1920 – 1" clip-path="url(#clip-Web_1920_1)">
    <g id="LOGO_1_Converted_-01" data-name="LOGO 1 [Converted]-01" transform="translate(42.23 -43.895)">
      <path id="Path_146" data-name="Path 146" d="M600.46,529.49a114.082,114.082,0,0,0-22.27,5.83,103.844,103.844,0,0,0-53.48,46.81c-3.35,6.42-4.76,12.25-6.11,17.94-1.23,5.68-2.12,11.15-2.89,16.46-1.54,10.59-2.61,20.58-3.81,29.85-2.3,18.49-5.1,34.16-9.03,45.49a76.484,76.484,0,0,1-5.59,12.78,32.033,32.033,0,0,1-11.27,11.51,32.987,32.987,0,0,1-16.4,4.15,34.3,34.3,0,0,0,17.84-.92,37.482,37.482,0,0,0,15.48-10.44,52.3,52.3,0,0,0,6.51-8.42c3.8.18,7.58.34,11.27.34,21.59,0,41.16-4.36,55.17-26.78,6.46-10.35,9.61-22.31,10.75-34.37.44-4.69.62-9.4.6-14.11-.01-2.48.11-4.95.15-7.42.03-2.42-.39-4.87-.33-7.26.03-1.53-.39-9.77,3.11-6.35,2.4,2.33,3.36,6.78,3.93,9.96,1.23,6.85,2.67,12.8,2.29,19.94a88.878,88.878,0,0,1-7.31,30.22,89.035,89.035,0,0,0,9.03-30.06,76.727,76.727,0,0,0-.24-18.67,101.753,101.753,0,0,0-4.15-16.44,91.289,91.289,0,0,0-3.27-9.05c-1.23-2.86-3.12-5.48-4.18-8.4-1.28-3.5,1.33-2.99,3.65-1.34,4.36,3.1,6.72,8.3,8.78,13.07a88.893,88.893,0,0,1,6.94,30.32,88.92,88.92,0,0,0-5.34-30.92,76.315,76.315,0,0,0-11.51-20.71c-3.93-4.98-7.63-10.5-12.46-14.52-1.71-1.42,7.09-7.28,7.9-7.72a95.662,95.662,0,0,1,13.16-5.68c9.19-3.23,18.69-5.43,28.08-7.98,14.51-3.93,29.9-9.05,40.74-19.99-11.36,7.14-24.61,9.11-37.99,10.25-9.38.8-18.82,1.18-27.73,2.65Zm-29.8,141.34c-14.04,22.45-34.25,24.66-57.84,23.72,6.05-11.77,10.51-27.74,13.88-45.83,1.45-7.46,2.74-15.36,4.09-23.44a73.111,73.111,0,0,1,12.5,10.6,106.5,106.5,0,0,1,12.22,16.22l.03.04,2.7,4.21a106.1,106.1,0,0,1,5.8,11.18,108.8,108.8,0,0,0-1.78-12.82,50.059,50.059,0,0,0-1.2-5l-.03-.09a63.628,63.628,0,0,0-10.29-20,67.414,67.414,0,0,0-17.84-16.16c.58-3.26,1.23-6.49,1.99-9.64,1.17-4.95,2.64-10.04,4.61-13.7a93.963,93.963,0,0,1,6.82-10.5c7.99,2.43,14.99,6.35,19.87,12.84,16.89,22.48,18.77,55.44,4.45,78.38Z" fill="#181818"/>
      <path id="Path_147" data-name="Path 147" d="M1752.16,565.82c-.8-60.23-10.2-119.29-28.44-174.15a472.592,472.592,0,0,0-34.03-78.5,437.353,437.353,0,0,0-46.93-68.83c-17.5-21.05-36.67-40.3-57.83-56.67a343.934,343.934,0,0,0-67.11-40.45,329.919,329.919,0,0,0-71.85-23.19,348.324,348.324,0,0,0-71.96-6.58c-47.2.56-91.62,10.11-131.55,23.99a529.751,529.751,0,0,0-107.1,51.87c-31.57,19.69-58.44,41.41-82.65,61.31l-.62.49c-.83.67-1.66,1.38-2.52,2.09a571.666,571.666,0,0,0-64.47-46.62,622.674,622.674,0,0,0-69.57-36.86,696.446,696.446,0,0,0-76.26-29.46c-49.26-15.66-99.12-25.46-147.59-27.12a367.129,367.129,0,0,0-70.89,4.12q-8.61,1.38-16.99,3.22c-5.59,1.2-11.31,2.7-16.74,4.45a156.771,156.771,0,0,0-31.17,13.67c-9.74,5.71-18.86,12.66-26.11,21.59-7.24,8.82-12.25,20.09-12.83,31.61-.77,11.48,2.61,22.36,6.97,31.45a106.859,106.859,0,0,0,16.62,24.45c12.69,14.16,26.66,24.7,38.61,35.36a189.252,189.252,0,0,1,16.49,16q3.69,4.1,6.82,8.32c1.02,1.41,2.02,2.86,2.95,4.27a41.1,41.1,0,0,1,2.46,4.23l.03.07c5.4,10.66,7.22,22.51,7.61,33.2.06,2.06.06,4.05,0,6.05-10.9,7.77-21.04,16.28-31.54,25.13l-6.14,5.16c-6.45,5.38-13.27,10.53-19.88,15.48-8.97,6.75-17.87,13.45-26.9,19.96-8.69,6.24-18.92,9.36-28.66,13.61-12.47,5.41-24.72,11.33-36.92,17.41-5.47,2.73-12.5,5.75-19.9,8.91-30.16,12.92-71.47,30.65-78.88,58.41-5.47,20.49-3.5,41.72-1.6,62.26.86,9.12,1.72,18.58,1.9,27.73.49,23.22-6.48,40.21-14.52,59.89-2.46,5.99-4.98,12.17-7.41,18.77-1.84,5.07-3.59,10.35-5.28,15.45-5.01,15.02-10.2,30.57-18.61,43.93l-1.57,2.46c-7,11.09-14.22,22.54-21.43,33.05l-.62.85c-2.89,4.24-7.28,10.63-11.79,13.51-2.67,1.72-6.3,1.91-10.14,2.09-4.18.22-8.44.43-11.73,2.77-13.28,9.49-6.91,31.11-1.73,41.19.92,1.78,1.85,3.65,2.8,5.59,5.19,10.5,11.09,22.42,20.15,28.87,7.89,5.56,17.47,6.98,26.81,8.17.8,2.05,1.6,4.11,2.46,6.05,12.19,27.55,32.77,53.26,56.45,70.55a82.678,82.678,0,0,0,11.86,7.04c2.12,1.05,4.3,2.06,6.48,3.04a28.1,28.1,0,0,0,3.68,1.54,6.766,6.766,0,0,0,2.12.37c.15-2.03-3.01-4.15-4.27-5.38a72.438,72.438,0,0,1-6.6-7.61l-1.39-1.78a175.937,175.937,0,0,1-11.21-16.44,126.633,126.633,0,0,1-15.85-36.67,102.528,102.528,0,0,1-2.25-13.12,95.944,95.944,0,0,0,12.32.93,47.342,47.342,0,0,0,6.82-.43c7.1-1.01,13.86-4.67,20.39-8.54,12.44,24.42,31.21,46.81,52.49,62.38a86.343,86.343,0,0,0,11.85,7.03c2.15,1.04,4.3,2.05,6.48,3.04a30.044,30.044,0,0,0,3.71,1.54,7.4,7.4,0,0,0,2.13.37c.15-2.03-3.01-4.15-4.28-5.37a70.278,70.278,0,0,1-6.6-7.62l-1.38-1.78a163.249,163.249,0,0,1-11.21-16.43,127.175,127.175,0,0,1-15.88-36.67,111.217,111.217,0,0,1-2.77-18.92c-.06-.95-.03-2.3.03-3.81,6.88-2.86,13.95-5.8,21.07-8.29,1.78-.65,3.78-1.26,5.83-1.94,8.48-2.67,18.06-5.71,23.81-11.48,5.78-5.81,9.83-15.91,13.42-24.85.8-1.96,1.57-3.87,2.34-5.68,1.1-1.23,2.15-2.58,3.16-3.94a34.753,34.753,0,0,1,5.43-6.14c4.51-3.62,9.83-6.45,14.96-9.15l2.67-1.42a250.44,250.44,0,0,0,37.94-25.21c-4.24,6.56-8.48,12.75-12.26,18.21l-2,2.92a178.281,178.281,0,0,0-30.13,74.17c-11.05-1.5-24.87-2.24-28.56,8.54-5.65,16.4,7.56,36.49,17.78,46.01a37.979,37.979,0,0,0,7.28,5.28c0,1.26,0,2.52.03,3.75.31,42.91.62,83.42-26.93,116.22-30.51,36.33-80.01,22.18-113.12-.98-12.29-8.6-29.94-22.2-44.32-38.18-4.21-4.66-8.39-9.39-12.47-14.22-6.51-7.68-13.57-15.23-19.07-23.9-1.23-1.94-2.12-4.12-3.47-5.9-.07,4.37,1.84,7.96,2.76,12.1,4.49,19.72,15.82,38.92,27.4,55.26q5.07,7.185,10.75,13.97a375.306,375.306,0,0,0,30.56,32.31c1.51,1.38,3.01,2.7,4.52,3.96,1.99,1.72,3.9,3.35,5.68,5.16-23.93,4.66-53.32-3.5-74.08-11.37-8.54-3.23-16.86-7.01-25-11.03-3.84-1.91-7.59-3.93-11.37-5.84-4.61-2.33-9.43-4.92-14.34-6.45.61,1.45,2.58,2.64,3.65,3.75,1.5,1.53,3.1,2.97,4.7,4.39,33.79,29.39,87.78,51.88,136.03,51.88a128.622,128.622,0,0,0,37.07-5.13c18.27-5.56,37.93-16.55,51.23-28.72,29.67-27.03,46.5-66.13,51.54-119.54l.65-7c.68-7.64,1.38-15.02,2.27-22.33,1.81-.34,3.62-.71,5.5-1.11,2.36-.52,4.78-1.04,7.31-1.53,17.05-3.16,38.45-4.73,65.42-4.82,6.32,0,13.82,2.58,21.75,5.28,8.23,2.8,16.65,5.65,24.08,5.65a19.335,19.335,0,0,0,11.85-3.53c19.96-14.78,19.35-50.37,25.13-72.27,5.59-21.16,8.78-43.31,13.2-65.15,8.08-39.93,26.36-77.92,47.21-113.25,14.13-23.89,40.73-58.23,29.05-87.87a6.265,6.265,0,0,0-.28-.58c13.7-10.02,33.36-18.18,44.57-20.83,23.22-5.53,50.06-2.12,79.77,10.1,55.99,23.04,91.53,65.21,100.07,118.72,7.07,44.17,3.47,88.27-1.41,129.37a567.292,567.292,0,0,1-37.26,144.82c-34.55,85.51-92.79,156.67-149.52,222.25l-9.22,10.66c-97.7,112.81-189.97,219.37-207.66,373.83-6.3,55.01-5.19,107.65,3.23,156.46,9,52.15,26.26,100.01,51.36,142.21.46.77.95,1.54,1.41,2.33-1.2-4.61-2.18-9.24-2.92-13.94a85.572,85.572,0,0,1-1.78-13.15c.06-50.1,14.4-100.93,28.13-142.18,2.73-8.2,5.68-16.28,8.75-24.3q9.915-22.425,21.93-43.83c2.61-3.29,5.22-6.57,7.89-9.83,9.34-11.37,18.77-22.94,27.86-34.46,9.25-11.4,18.92-22.49,28.9-33.24,28.22-30.22,65.55-64.19,112.53-98.9l.19-.12c25.61-18.98,54.02-38.15,84.86-57.59,30.81-19.45,64.1-39.1,99.29-59.49,35.17-20.43,72.27-41.56,110.48-64.53,19.14-11.46,38.39-23.56,57.96-35.85s39.46-24.88,59.59-37.9c40.2-26.08,81.3-53.85,122.18-84.44,40.85-30.59,81.49-64.04,120.06-101.57,38.55-37.54,75-79.27,106.64-125.81,7.89-11.61,15.51-23.53,22.73-35.72,7.31-12.19,14.16-24.85,20.42-37.78a537.65,537.65,0,0,0,31.14-80.89,615.367,615.367,0,0,0,24.79-181.77Zm-1470,277.75c-.79,5.02-5.04,9.34-8.43,3.17-1.7-3.08-1.65-7.38-1.79-11.01-.26-6.59.18-17.63,7.93-19.26,4.58-.96,5.83,2.91,5.68,8.04-.19,7-2.96,16.36-3.39,19.07ZM586.94,278.46c-12.07-11.27-25.46-22.05-36.67-35.2a92.569,92.569,0,0,1-14.13-21.75c-3.65-7.99-5.89-16.4-5.22-24.75.62-8.33,4.24-16.38,10.11-23.34,5.84-6.97,13.67-12.9,22.36-17.79a142.224,142.224,0,0,1,28.29-11.98c5.04-1.54,10.1-2.83,15.42-3.9,5.28-1.11,10.66-2.09,16.12-2.89a358.158,358.158,0,0,1,67.88-3.38c46.59,1.9,95,11.52,143.04,26.81a697.271,697.271,0,0,1,74.51,28.63c3.42,1.55,6.78,3.16,10.16,4.75q-20.19-8.55-40.82-15.45c-18.71-6.29-37.63-11.62-56.66-16.17-9.53-2.3-19.05-4.3-28.5-6.29-9.49-1.98-19.03-3.88-28.63-5.54-19.2-3.31-38.67-5.67-58.12-5.71-19.37,0-38.86,2.04-56.87,8.01,18.61-3.44,37.7-2.78,56.3-.26,18.64,2.58,36.89,7.36,54.95,13.05,9.03,2.85,18.02,5.94,27.04,9.14,9.05,3.22,18.02,6.42,26.81,9.84,17.64,6.83,34.93,14.35,51.73,22.64,10.23,5.06,20.24,10.46,30.07,16.11-2.2-1-4.43-2.03-6.62-2.99l-25.61-11.27c-33.91-14.71-67.14-27.55-99.79-34.95a274.351,274.351,0,0,0-47.95-6.85,214.805,214.805,0,0,0-44.68,2.27c-14.1,2.12-27.71,5.53-39.07,12.63A40.7,40.7,0,0,0,618.6,195.7a36.207,36.207,0,0,0-4.64,17.82c.03,10.84,3.47,20.18,7.07,28.23a151.044,151.044,0,0,0,11.94,20.94,203.335,203.335,0,0,1,11.91,20.73c4.4,7.95,8.46,16.16,12.57,24.4a211.728,211.728,0,0,0-21.5-47.03A155.419,155.419,0,0,1,624.98,240c-3.26-7.83-6.2-16.8-5.96-26.45a30.518,30.518,0,0,1,4.27-15.08,34.878,34.878,0,0,1,12.16-11.67c10.28-6.2,23.25-9.34,36.88-11.18,27.49-4.03,58.27-2.15,90.05,5.52,31.85,7.53,64.53,20.37,98.2,35.17l25.52,11.33c8.66,3.81,17.14,7.72,25.58,12.07a422.98,422.98,0,0,1,45.49,27.28q-13.68-.33-27.27-.1c-56.58.87-113.06,10.2-167.21,26.51q-22.905,6.87-45.18,15.42-10.02,3.825-19.91,7.97c-13.93,5.83-27.69,12.14-41.17,18.85-2.77,1.37-5.54,2.77-8.29,4.17a64.8,64.8,0,0,0-3.48-17.87c-4.4-12.62-12.14-22.98-20.43-31.79-16.75-17.62-36.3-30.27-52.87-45.43-8.3-7.7-16.14-15.7-21.41-25.32-2.68-4.85-4.76-9.76-5.1-15.03A29.89,29.89,0,0,1,548,188.84a45,45,0,0,1,10.11-13.13,84.021,84.021,0,0,1,13.59-10.32,90.386,90.386,0,0,1,15.46-7.57c2.7-1,5.46-1.92,8.25-2.65a60.925,60.925,0,0,0,8.16-2.51,61.484,61.484,0,0,1-8.3,1.88,87.229,87.229,0,0,0-8.52,2.05,92.4,92.4,0,0,0-16.31,6.53,87.662,87.662,0,0,0-14.86,9.64,49.157,49.157,0,0,0-12.13,13.61,35.781,35.781,0,0,0-5.07,18.21,35.1,35.1,0,0,0,1.34,9.57,61.261,61.261,0,0,0,3.28,8.71c5.12,11.26,13.1,20.62,21.03,29.18,16.31,17.23,34.73,31.34,48.5,48.34,6.83,8.41,12.34,17.49,14.81,26.91a46.547,46.547,0,0,1-.08,24.04c-1.04.65-2.09,1.27-3.11,1.93,0-.06.03-.15.03-.22.03-11.6-1.23-24.54-7.19-37.56l-.06-.1c-6.94-13.94-17.91-25.65-29.98-36.95ZM482.32,456.99c.1.64.18,1.28.29,1.85h0c.14.79.27,1.5.39,2.14-4.16.51-9.05,1.11-14.44,1.83q6.855-2.97,13.76-5.82Zm-41.48,18.42a64.662,64.662,0,0,1,2.79,6.07h0l.83,2.19c.08.2.13.42.2.62-5.49.69-13.13,1.63-21.91,3.33-.65-1.01-1.37-2.07-2.12-3.14,6.63-3.22,13.47-6.11,20.21-9.08Zm-21.99,9.95c.67.9,1.34,1.79,1.94,2.65-3.32.67-6.78,1.46-10.32,2.37-.57.15-1.1.33-1.66.49,3.25-1.97,6.61-3.8,10.04-5.51ZM390.93,505.1a72.178,72.178,0,0,1,8.22-7.55,117.376,117.376,0,0,1,11.32,13.63h0l1.4,2.02a87.84,87.84,0,0,0-12.78,3.34c-2.6.89-5.33,2-8.13,3.25-1.66-2.33-3.55-4.85-5.62-7.46a52.71,52.71,0,0,1,5.58-7.23Zm-6.72,9.01c1.82,2.23,3.55,4.41,5.1,6.42-3.09,1.44-6.25,3.07-9.41,4.93-.39.23-.77.47-1.16.7a62.3,62.3,0,0,1,5.47-12.06Zm-8.35,23.24c4.13,4.57,7.72,8.88,10.65,12.46a86.414,86.414,0,0,0-10.26,7.85c-.83.74-1.66,1.55-2.5,2.36a143.072,143.072,0,0,1,2.11-22.67Zm-2.19,27.42c4.35,4.85,8,9.21,10.7,12.35h0l2.61,3.04.05.06c-1.24,1.31-2.49,2.7-3.77,4.22a103.2,103.2,0,0,0-7.33,9.93c-.32-.45-.71-.95-1.04-1.41a190.759,190.759,0,0,1-1.22-28.18Zm-4.77,384.1a177.837,177.837,0,0,0,11.43,16.71l1.35,1.75c.92,1.17,1.87,2.46,2.92,3.68a76.238,76.238,0,0,1-11.94-7.03c-6.08-4.42-10.91-10.32-15.6-16.16a154.755,154.755,0,0,1-15.76-23.8c-2.46-4.55-4.64-9.1-6.6-13.73-1.35-3.16-5.99-10.2-3.1-13.42,6.57-7.28,10.47,12.74,11.49,15.29,2.06,5.19,4.24,10.41,6.76,15.39a172.643,172.643,0,0,0,14.04,23.35,92.537,92.537,0,0,0,9,10.5c-.92-1.54-1.91-3.04-2.89-4.55-1.57-2.3-3.16-4.61-4.67-6.94a170.406,170.406,0,0,1-12.32-23.77A212.29,212.29,0,0,1,343,895.12c2.92.8,5.59,1.63,7.31,1.91a106.882,106.882,0,0,0,2.36,14.28,131.269,131.269,0,0,0,16.25,37.56Zm19.84-77.19c-.55,1.95-7.92,5.57-9.74,6.73a60.209,60.209,0,0,1-9.85,5.29c-6.78,2.74-16.48,4.55-23.68,2.55-15.21-4.24-20.6-24.17-21.79-37.69-2.25,5.55-2.6,12.44-2.6,18.77a67.255,67.255,0,0,1-.38,9.6c-1.28,8.67-10.39,3.43-15.84,1.01-6.02-2.67-11.4-4.97-15.24-10.38-4.73-6.72-3.62-16,1.72-21.72A12.207,12.207,0,0,1,293,844.3c2.43-1.96,31.67-21.62,31.67-22.36,6.35,8.57,14.9,15.33,24.23,20.4,9.44,5.13,17.29,12.5,27.12,17.13,5.41,2.55,14.69,5.13,12.72,12.19Zm54.79,62.5a177.487,177.487,0,0,0,11.4,16.71l1.38,1.74c.89,1.17,1.88,2.43,2.92,3.69a77.868,77.868,0,0,1-11.98-7.03,97.783,97.783,0,0,1-18.4-17.32,131.343,131.343,0,0,1-16.95-27.09,47.657,47.657,0,0,1-4.66-15.33,8.2,8.2,0,0,1,.27-3.5,2.732,2.732,0,0,1,1.41-1.54c5.19-2.15,7.44,8.54,8.69,11.73,2.15,5.43,4.52,10.81,7.06,16.1a168.728,168.728,0,0,0,14.04,23.34,90.245,90.245,0,0,0,8.97,10.51c-.92-1.56-1.87-3.07-2.89-4.55-1.54-2.34-3.16-4.61-4.67-6.94a170.229,170.229,0,0,1-12.32-23.8,203.438,203.438,0,0,1-10.72-34c2.7-.86,5.31-1.6,7.34-2.46-.03,1.02-.03,1.97,0,2.71a112.915,112.915,0,0,0,2.86,19.47,130.318,130.318,0,0,0,16.24,37.56Zm64.35-25.49a5.748,5.748,0,0,1-1.9-.74c-4.85-2.76-6.63-12.62-7.34-17.63-.52-3.53-1.32-8.63,1.63-11.39,3.32-3.13,9.34-1.69,11.15,2.43,2.16,4.76-.46,13.54-.71,18.64-.16,3.23.64,9.21-2.83,8.69Zm27.09,2.52c-.52,3.5-1.07,6.97-1.63,10.44-1.75,10.78-2.7,21.47-3.75,32.77l-.65,6.97c-4.94,52.64-21.47,91.1-50.52,117.61-13.02,11.82-32.19,22.57-50.06,28.01-25.28,7.68-55.56,5.74-84.9-2.27a211.884,211.884,0,0,0,25.65,1.29,204.659,204.659,0,0,0,47.15-6.21,199.681,199.681,0,0,1-46.44-2.39c-5.19-.92-10.32-2.06-15.38-3.38,1.01.03,2.02.12,3.01.12a78.729,78.729,0,0,0,18.46-2.03l2.46-.58-1.66-1.9a74.046,74.046,0,0,0-7.8-7.41c-1.47-1.23-2.95-2.52-4.39-3.87a371.609,371.609,0,0,1-30.34-32.07c-.52-.64-1.04-1.32-1.6-1.96,5.62,5.25,11.36,10.32,17.17,15.14,16.4,13.79,35.35,24.7,56.02,29.55a79.594,79.594,0,0,0,31.27,1.32,64.222,64.222,0,0,0,27.79-11.8,63.141,63.141,0,0,1-28.2,7.5,73.918,73.918,0,0,1-28.32-5.25c-18-7.06-33.72-19.38-46.47-33.63-.28-.27-.49-.58-.74-.86,2.61,1.94,5.1,3.78,7.4,5.38,19.07,13.33,43.43,23.74,66.81,23.74,18.49,0,36.33-6.54,50.4-23.32,28.29-33.66,27.98-74.72,27.67-118.18-.03-4.55-.09-9.06-.09-13.64,0-40.08,7.83-80.47,30.38-114.29a123.806,123.806,0,0,1,12.2-15.33c-3.23,4.09-6.39,8.29-9.31,12.74a136.295,136.295,0,0,0-11.18,20.8,167.626,167.626,0,0,0-12.04,44.23c-2.09,14.92-2.61,29.72-2.74,44.35-.15,14.68.09,29.21-.34,43.74-.22,7.28-.61,14.56-1.27,21.81s-1.47,14.62-4.39,21.69a52.462,52.462,0,0,0,4.27-10.44c1.17-3.63,1.87-7.25,2.67-10.82,1.54-7.22,2.79-14.47,3.87-21.74,2.15-14.54,3.66-29.13,5.5-43.47s4.09-28.51,7.65-42.02a148.611,148.611,0,0,1,15.3-37.93,107.586,107.586,0,0,1,15.42-20.8c-19.56,29.3-28.99,64.23-34.3,98.38Zm9.92-36.77c3.38-13.98,8.08-27.58,15.57-40.04a199.818,199.818,0,0,1,16.99-23.71c.49,13.42-.59,27.92-1.94,41.13-.31,3.04-.55,6.11-.8,9.25-.4,5.34-.86,10.81-1.66,16-9.46.13-18.92-1.23-28.17-2.61ZM782.21,567.79c81.95-48.12,155.46-72,223.86-72.09-7.61,2.73-14.86,5.77-21.83,9.03-6.45.06-12.62.31-18.49.8a244.5,244.5,0,0,0-58.57,10.97c-9.55,3.13-18.3,6.63-27.37,10.1-8.97,3.5-17.91,7.16-26.75,10.96a565.915,565.915,0,0,0-67.04,33.78c-1.3-1.15-2.57-2.33-3.8-3.56Zm377.4,626.76a4.96,4.96,0,0,1-1.35-3.6c-.24-6.69,5.93-18.06,15.39-28.28,9.55-10.29,20.82-17.48,27.4-17.48a4.772,4.772,0,0,1,3.34,1.08c1.99,1.84,1.78,6.18-.56,11.89-2.57,6.26-7.37,13.36-13.51,19.97-9.53,10.32-20.76,17.51-27.37,17.51a4.837,4.837,0,0,1-3.34-1.08Zm-1.66,24.41c-2.55,6.3-7.34,13.36-13.48,20-9.55,10.29-20.8,17.5-27.37,17.5a4.8,4.8,0,0,1-3.38-1.1,4.942,4.942,0,0,1-1.32-3.56c-.27-6.73,5.9-18.09,15.39-28.29,9.56-10.32,20.79-17.51,27.37-17.51a4.8,4.8,0,0,1,3.35,1.08c2,1.84,1.82,6.18-.55,11.88Zm24.69-25.05c10.51-8.79,22.08-14.69,28.81-14.69,1.91,0,3.22.46,3.99,1.35,1.63,1.94.71,6.27-2.46,11.58-3.5,5.9-9.37,12.44-16.46,18.37-10.48,8.82-22.09,14.72-28.81,14.72-1.91,0-3.23-.46-4-1.35a4.561,4.561,0,0,1-.77-3.29c.59-6.48,8.67-17.47,19.69-26.68Zm30.87-52.99a4.8,4.8,0,0,1-3.35-1.08,4.98,4.98,0,0,1-1.36-3.59c-.24-6.69,5.94-18.06,15.4-28.29,9.55-10.29,20.82-17.51,27.4-17.51a4.729,4.729,0,0,1,3.35,1.1c1.99,1.84,1.78,6.17-.56,11.89-2.58,6.27-7.37,13.36-13.51,19.97-9.52,10.32-20.76,17.51-27.36,17.51Zm21.07-75.49c4.94-7.53,11.79-12.81,16.62-12.81a4.449,4.449,0,0,1,2.52.71c1.88,1.23,2.67,4.2,2.18,8.17a35.4,35.4,0,0,1-5.75,14.19c-4.95,7.53-11.8,12.81-16.62,12.81a4.519,4.519,0,0,1-2.52-.71,5.239,5.239,0,0,1-2.08-3.53c-.99-4.73,1.23-12.13,5.65-18.83Zm-4.55,90.69c2.89-6.26,7.99-13.38,14.43-20.02,10.04-10.44,21.63-17.75,28.11-17.75a4.448,4.448,0,0,1,3.1.98c3.69,3.56-1.84,17.51-15.64,31.79-10.07,10.47-21.62,17.75-28.13,17.75a4.332,4.332,0,0,1-3.08-.99c-1.81-1.75-1.38-6.14,1.2-11.77Zm19.09-340.23c-1.78-10.06-3.21-20.8-12.05-27.29-5.15-3.8-11.36-5.21-18.29-7.18q-13.725-3.915-27.67-7a443.369,443.369,0,0,0-54.21-8.48c-18-1.66-36.39.21-54.21-1.57,4.3.46,8.63.92,12.94,1.48,20.3,2.61,41.37,3.84,61.06,9.64,17.82,5.25,41.07,15.42,50.16,32.71,7.28,13.76,9.19,36.27-2.7,47.91-11.61,11.34-28.81,9.06-43.31,6.21-2.94-.59-5.8-1.21-8.66-1.85-1.49-.46-2.98-.91-4.48-1.36a432.322,432.322,0,0,0-90.63-16.84c-8.61-.65-21.06,1.19-28.38-4.48-9.58-7.41-9.87-18.82-8.81-29.87q.825-8.565,1.45-17.16c.34-4.7-.21-10.3,1.34-14.79,2.47-7.19,9.13-12.83,15.77-16.06,9.77-4.75,22.94-3.76,33.59-4.62,12.67-1.01,25.38-1.53,38.09-1.39a424.737,424.737,0,0,1,88.55,10.35q21.51,4.785,42.5,11.67c14.3,4.68,29.97,8.37,42.51,17.05,19.96,13.81,14.47,39.1,11.33,59.43q-2.67,17.28-6.42,34.28c-1.94,8.82-2.77,19.47-11.42,24.39-4.86,2.73-11.86,1.07-16.31-1.48-1.81-1.07-20.18-10.63-20.18-11.49,0-9.09,4.11-19.67,5.62-28.73,2.93-17.64,5.97-35.67,2.82-53.48ZM1014.51,439.8c.22-5.06,12.25-10.5,31.3-10.5,1.57,0,3.13.03,4.76.09,9.71.46,18.77,2.27,25.46,5.13,6.14,2.58,9.58,5.74,9.46,8.66-.25,5.04-12.29,10.5-31.36,10.5-1.54,0-3.14-.04-4.73-.09C1028.48,452.58,1014.23,445.51,1014.51,439.8Zm33.94,30.84c-.25,5.07-12.29,10.54-31.36,10.54-1.54,0-3.1-.03-4.7-.12-20.92-.98-35.2-8.05-34.92-13.79.24-5.04,12.28-10.51,31.33-10.51,1.53,0,3.13.03,4.73.12,9.71.46,18.77,2.27,25.46,5.1C1045.13,464.59,1048.57,467.75,1048.45,470.64Zm21.31,3.68c.8-4.91,10.54-8.2,24.18-8.2a103.356,103.356,0,0,1,16.62,1.44c10.53,1.78,20.18,4.95,27.12,8.91,6.42,3.65,9.77,7.61,9.24,10.84-.83,4.88-10.56,8.17-24.2,8.17a101.754,101.754,0,0,1-16.62-1.44c-10.54-1.79-20.16-4.95-27.12-8.91-6.39-3.66-9.77-7.62-9.22-10.82Zm70.8-17.08c-23.53.83-43.49-5.52-43.74-13.48a6.5,6.5,0,0,1,2.12-4.67c5.99-6.39,22.3-11.12,40.6-11.74,1.41-.03,2.8-.06,4.18-.06,24.17,0,39.34,7.04,39.59,13.55a6.786,6.786,0,0,1-2.12,4.66c-5.99,6.39-22.3,11.12-40.64,11.73Zm12.47,45.4c1.97-11.7,16.89-19.87,36.28-19.87a71.516,71.516,0,0,1,11.95,1.02c15.5,2.61,28.74,9.74,35.44,19.13,3.41,4.76,4.76,9.77,3.96,14.5-1.93,11.67-16.88,19.84-36.27,19.84a72.477,72.477,0,0,1-11.95-1.01c-11.83-1.97-22.45-6.67-29.91-13.15-7.28-6.33-10.62-13.58-9.5-20.46Zm239.08,334.21c-.28-20.21,9.34-36.8,21.56-36.95,11.97,0,21.9,16.3,22.15,36.39.18,12.81-3.75,24.91-10.29,31.64-3.34,3.44-7.18,5.28-11.12,5.31l-.15,1.54v-1.54C1402.31,873.24,1392.36,856.93,1392.11,836.85ZM1338.17,565c2.77-11.92,18.67-19.63,40.51-19.63a100.427,100.427,0,0,1,23.25,2.8c20.98,4.88,38.73,15.54,46.35,27.8,3.31,5.35,4.45,10.72,3.31,15.6-2.76,11.92-18.67,19.63-40.51,19.63a102.424,102.424,0,0,1-23.25-2.79c-31.26-7.31-53.56-26.78-49.66-43.4Zm-50.62-60.85c.09-16.83,25.95-30.5,57.6-30.5h.89c15.73.09,30.47,3.53,41.49,9.62,10.72,5.96,16.59,13.67,16.52,21.78-.12,16.8-25.98,30.5-57.68,30.5h-.8c-32.13-.25-58.14-14.31-58.02-31.39Zm48.22,365.87a18.569,18.569,0,0,1-9.53-2.49c-5.77-3.41-9.33-9.95-9.95-18.43-.61-8.73,1.87-18.34,7.03-27.16,7.89-13.39,20.37-22.04,31.79-22.04a18.314,18.314,0,0,1,9.49,2.48c4.42,2.58,7.56,7.03,9.07,12.87,2.48,9.67.21,21.89-6.15,32.68-7.86,13.43-20.33,22.08-31.76,22.08Zm10.69,44.11c-5.93,10.1-15.27,16.62-23.84,16.62a13.748,13.748,0,0,1-7.06-1.84c-4.3-2.52-6.91-7.4-7.37-13.73-.47-6.54,1.41-13.79,5.28-20.42,5.96-10.08,15.3-16.59,23.87-16.59a13.647,13.647,0,0,1,7.03,1.85,14.975,14.975,0,0,1,6.7,9.54c1.9,7.28.15,16.47-4.6,24.58Zm-6.05-119.57a20.673,20.673,0,0,1-10.69-2.79c-6.48-3.81-10.44-11.12-11.12-20.61-.7-9.7,2.09-20.46,7.84-30.25,8.78-14.96,22.7-24.61,35.44-24.61a20.5,20.5,0,0,1,10.66,2.8c4.94,2.89,8.45,7.86,10.13,14.4,2.8,10.81.25,24.42-6.85,36.46-8.76,14.96-22.67,24.6-35.41,24.6Zm4.61-192.06c1.93,6.7-.28,14.19-6.18,21.11-6.05,7.1-15.2,12.65-25.8,15.69a60.13,60.13,0,0,1-16.28,2.33c-15.51,0-27.43-6.57-30.31-16.74-1.93-6.7.27-14.19,6.17-21.11,6.05-7.09,15.21-12.65,25.8-15.66a59.026,59.026,0,0,1,16.31-2.36c15.51,0,27.4,6.57,30.29,16.74Zm-30.59,56.79c10.29-17.5,26.17-29.27,39.53-29.27a18.592,18.592,0,0,1,9.49,2.46c6.45,3.81,10.1,11.61,10.26,22.02.18,10.69-3.35,22.7-9.93,33.82-10.26,17.54-26.13,29.3-39.49,29.3a18.219,18.219,0,0,1-9.49-2.49c-6.48-3.78-10.1-11.58-10.29-21.99-.15-10.66,3.35-22.7,9.93-33.85Zm1.94,277.94a13.856,13.856,0,0,1,7.09,1.84,15.28,15.28,0,0,1,6.76,9.61c1.88,7.22.16,16.34-4.57,24.32-5.83,9.98-15.11,16.43-23.65,16.43a13.55,13.55,0,0,1-7.1-1.87c-4.3-2.52-6.94-7.37-7.43-13.67-.49-6.51,1.39-13.7,5.22-20.27,5.87-9.95,15.17-16.4,23.68-16.4Zm-3.07,74.3c6.33-8.38,14.53-14.01,20.39-14.01a6,6,0,0,1,3.62,1.07c2.24,1.69,2.98,5.37,2.06,10.14-1.02,5.22-3.84,11.09-7.96,16.53-6.32,8.38-14.53,14-20.39,14a6.093,6.093,0,0,1-3.65-1.08,6.7,6.7,0,0,1-2.31-4.54c-.8-5.77,2.43-14.44,8.23-22.11ZM1345.83,963c6.11-11.05,15.26-18.74,22.24-18.74a7.115,7.115,0,0,1,3.56.87c3.07,1.72,4.67,5.8,4.49,11.51-.16,6.05-2.3,13.12-6.05,19.81-6.11,11.03-15.27,18.74-22.24,18.74a7.11,7.11,0,0,1-3.56-.86,8.458,8.458,0,0,1-3.84-5.41c-1.88-6.51.24-16.68,5.4-25.92Zm23.4-37.38c-1.72-6.84-1.26-15.14,1.33-23.31,4.55-14.52,14.61-25.06,23.95-25.06a11.21,11.21,0,0,1,3.38.52,13.4,13.4,0,0,1,7.74,7.03c3.75,7.16,4.03,18.15.71,28.72-4.51,14.52-14.59,25.06-23.96,25.06a11.21,11.21,0,0,1-3.38-.52c-4.64-1.44-8.11-5.86-9.77-12.44Zm35.9-160.17c-4.91-11.37-6.81-23.22-5.37-33.35,1.41-9.86,5.83-16.87,12.47-19.72a17.58,17.58,0,0,1,6.82-1.35c13.3,0,28.36,13.42,36.62,32.65,6.45,14.9,7.68,30.4,3.29,41.46-2.25,5.62-5.84,9.65-10.38,11.61a17.551,17.551,0,0,1-6.82,1.36c-13.27,0-28.31-13.42-36.61-32.65Zm53.32-66.71c-3.44,3.69-8.6,5.62-14.93,5.62-12.17,0-26.82-6.88-39.13-18.39-9.52-8.88-16.4-19.38-19.44-29.55-2.95-9.92-1.84-18.24,3.1-23.52,3.41-3.69,8.6-5.62,14.93-5.62,12.16,0,26.78,6.88,39.1,18.4,12.56,11.7,20.64,26.56,21.04,38.76.21,5.87-1.42,10.84-4.67,14.31Zm9.19-85.51c3.53-3.26,8.23-4.89,14.03-4.89,13.61,0,30.38,9.07,43.74,23.66,9.68,10.53,16.4,22.57,18.92,33.91,2.45,11.02.64,19.99-5.13,25.31-3.5,3.23-8.23,4.88-14.01,4.88-13.61,0-30.38-9.09-43.8-23.68-19.72-21.5-25.89-48.04-13.76-59.19Zm61.52-42.91c-4.88,9-15.45,14.16-28.96,14.16a65.345,65.345,0,0,1-30.9-8.35c-24.11-13.11-36.52-37.07-27.64-53.41,4.88-9,15.44-14.16,28.96-14.16,10.17,0,20.82,2.91,30.87,8.35,11.8,6.42,21.16,15.58,26.35,25.77,5.1,10.02,5.56,19.84,1.32,27.65ZM1497,465.18c-2.46,16.55-21.93,28.57-46.32,28.57a78.791,78.791,0,0,1-11.33-.86c-28.87-4.28-50-23.68-47.09-43.25,2.42-16.53,21.9-28.5,46.25-28.5a78.98,78.98,0,0,1,11.34.83c14.09,2.09,26.78,7.8,35.72,16.09,8.75,8.14,12.81,17.75,11.42,27.12Zm-157.56-34.5c-34.09-.8-61.49-16.03-61.06-33.94.4-17.14,27.18-31.08,59.77-31.08.92,0,1.84.03,2.77.03,16.67.4,32.25,4.21,43.86,10.81,11.3,6.39,17.42,14.62,17.21,23.13-.4,17.6-28.66,31.79-62.54,31.05Zm-44.97,10.6c10.01,6.24,15.08,13.39,14.25,20.14-1.41,11.49-20.7,19.81-45.85,19.81a122.627,122.627,0,0,1-15.18-.95c-31.88-3.93-56.36-18.8-54.61-33.15,1.42-11.51,20.67-19.84,45.83-19.84a121.183,121.183,0,0,1,15.2.96c15.63,1.9,29.98,6.54,40.36,13.02Zm-24.66,89.32c.8,0,1.63.04,2.46.06,15.48.46,29.92,5.93,37.69,14.19,4,4.27,6.02,9.03,5.87,13.82-.49,14.59-20.64,25.99-45.26,25.15-24.52-.8-44.05-13.38-43.56-28.04.46-14.13,19.26-25.18,42.82-25.18Zm-3.35,132.26c10.78,13.05,15.54,29.85,20.17,45.98a310.11,310.11,0,0,1,7.38,30.66c1.78,9.85,5.89,25.25,1.14,34.83-3.81,7.65-14.22,6.39-20.68,3.84-2.21-.86-22.14-7-22.2-8.23-1.12-22.85-3.64-46.88-10.03-68.93-4.43-15.29-14.14-35.55-29.35-42.62-15.28-7.11-32.98-5.73-49.43-5.58a501.876,501.876,0,0,0-57.86,3.68c-16.29,2.04-32.44,7.46-48.61,9.17,18.06-1.9,36.21-3.07,53.56-4.15,23.1-1.42,45.7-.28,67.02,9.52,11.46,5.28,22.98,13.32,26.87,25.95a30.921,30.921,0,0,1-7.98,31.54c-9.99,9.74-24.27,11.79-37.57,13.06-26.75,2.52-53.63,2.9-80.43,4.61-15.13.97-52.66,12.18-56.24-11.98-1.69-11.39-1.73-23.03-3.56-34.46-1.32-8.38-4.73-19.2-1.2-27.58,3.29-7.71,11.2-9.63,18.5-11.92q11.55-3.615,23.37-6.31a392.788,392.788,0,0,1,51.49-8.11,574.074,574.074,0,0,1,70.63-1.74c4.14.12,8.32.25,12.47.37,23.68.71,55.59-2.12,72.55,18.4Zm22.88,335.52a6.313,6.313,0,0,1,3.72,1.08c2.58,1.78,3.53,5.92,2.64,11.39-.98,5.9-3.93,12.65-8.36,18.95-6.91,9.92-16.3,16.83-22.82,16.83a6.41,6.41,0,0,1-3.72-1.04,7.214,7.214,0,0,1-2.74-4.91c-1.17-6.45,2.15-16.43,8.45-25.43,6.91-9.92,16.31-16.86,22.82-16.86Zm-23.74,84.4a5.32,5.32,0,0,1-5.87-5.77c-.24-6.11,4.3-15.11,11.55-22.94,7.34-7.93,16.34-13.24,22.36-13.24a5.988,5.988,0,0,1,4.15,1.35c2.05,1.91,2.27,5.77.64,10.69-1.75,5.38-5.5,11.27-10.47,16.65-7.34,7.95-16.34,13.27-22.36,13.27Zm14.65,14.9c1.96-5.93,5.99-12.65,11.3-18.98,8.38-10.01,18.52-17.01,24.63-17.01a4.518,4.518,0,0,1,2.98.92c1.97,1.66,2.09,5.68.28,11.03-1.97,5.9-5.99,12.66-11.27,18.98-8.39,10.01-18.52,17.02-24.67,17.02a4.386,4.386,0,0,1-2.94-.92c-2-1.66-2.12-5.68-.31-11.02Zm27.58,8.75c1.47-5.01,4.85-10.35,9.52-14.99,6.33-6.3,13.94-10.23,19.91-10.23a8.044,8.044,0,0,1,5.83,2.06c4.76,4.76.98,16.55-8.23,25.74-6.32,6.33-13.95,10.26-19.9,10.26a7.943,7.943,0,0,1-5.84-2.09c-2.21-2.21-2.67-6.02-1.29-10.75Zm21.93-46.96a5.381,5.381,0,0,1-3.62-1.14,5.775,5.775,0,0,1-1.84-4.21c-.59-6.51,4.27-17.14,12.07-26.45,8.29-9.92,18.24-16.58,24.79-16.58a5.456,5.456,0,0,1,3.59,1.14c2.21,1.84,2.52,6.04.83,11.54-1.82,6.02-5.75,12.8-11.03,19.11-8.32,9.92-18.27,16.58-24.79,16.58Zm22.24,8.39c.46-6.11,3.04-13.05,7.25-19.5,6.57-10.11,15.85-16.89,23.07-16.89a8.191,8.191,0,0,1,4.63,1.29c6.7,4.36,5.28,18.86-3.04,31.67-6.6,10.1-15.88,16.9-23.07,16.9a8.716,8.716,0,0,1-4.67-1.26c-3.17-2.05-4.64-6.39-4.18-12.19Zm23.83-56.88a5.292,5.292,0,0,1-3.1-.86c-2.46-1.72-3.19-6.08-1.97-11.92,1.35-6.42,4.76-13.79,9.65-20.82,7.98-11.52,18.21-19.53,24.88-19.53a5.442,5.442,0,0,1,3.1.86c2.49,1.72,3.19,6.08,1.96,11.95-1.32,6.39-4.76,13.79-9.64,20.79-7.95,11.52-18.18,19.54-24.88,19.54Zm33.94-13.24c5.83-11.3,15.02-19.16,22.3-19.16a7.852,7.852,0,0,1,3.75.86c7.06,3.68,7.12,18.25.09,31.82-5.84,11.31-14.99,19.16-22.3,19.16a7.787,7.787,0,0,1-3.72-.86c-7.09-3.68-7.12-18.24-.12-31.82Zm10.69-43.03a7.613,7.613,0,0,1-4.14-1.08c-3.38-2.06-4.88-6.91-4.24-13.6.67-7.13,3.65-15.32,8.41-23.1,7.77-12.68,18.71-21.53,26.62-21.53a7.658,7.658,0,0,1,4.15,1.1c3.35,2.03,4.88,6.97,4.24,13.61-.65,7.09-3.66,15.29-8.42,23.06-7.74,12.68-18.7,21.53-26.63,21.53Zm33.36-10.44c4.88-15.2,15.17-26.66,23.92-26.66a9.789,9.789,0,0,1,2.83.43c9,2.92,11.92,19.81,6.41,36.92-4.91,15.2-15.2,26.7-23.93,26.7a8.861,8.861,0,0,1-2.85-.46c-4.24-1.38-7.31-5.83-8.6-12.59-1.35-7.1-.55-15.73,2.22-24.33Zm34.39-86.92c-7.92,17.84-20.89,30.81-30.8,30.81a9.5,9.5,0,0,1-3.87-.8c-4.58-2.03-7.25-7.8-7.55-16.22-.34-8.81,2.03-19.35,6.6-29.64,7.92-17.85,20.89-30.78,30.81-30.78a9.606,9.606,0,0,1,3.87.8c4.55,2.03,7.25,7.77,7.55,16.22.31,8.82-2.03,19.32-6.6,29.61Zm-7.16-100.31c-1.85-22.42,5.5-42.08,16.03-42.94a6.1,6.1,0,0,1,.74-.03c10.38,0,20.31,17.85,22.09,39.78.95,11.24-.31,21.93-3.54,30.16-3.07,7.84-7.49,12.38-12.47,12.81-10.72.83-21.01-17.33-22.85-39.78Zm17.05,107.13c3.16-23.44,15.57-41.81,28.22-41.81a15.944,15.944,0,0,1,1.69.09c13.14,1.78,21.13,23.38,17.79,48.16-3.29,24.51-16.68,43.46-29.92,41.71-6.17-.83-11.46-6.17-14.87-15.05-3.5-9.19-4.55-20.95-2.92-33.11Zm34.21-86.06c-4.24-30.13,6.79-56.66,24.6-59.18a20.877,20.877,0,0,1,2.73-.19c16.92,0,33.29,22.09,37.25,50.25,4.24,30.13-6.79,56.67-24.6,59.19a20.446,20.446,0,0,1-2.71.18c-16.96,0-33.33-22.08-37.29-50.25Zm31.36-96.47c-18.09-28.5-19.69-60.05-3.56-70.28a21.432,21.432,0,0,1,11.73-3.23c16.31,0,36.56,14.59,50.34,36.33,18.09,28.5,19.69,60.02,3.56,70.27a21.493,21.493,0,0,1-11.7,3.2c-16.34,0-36.58-14.59-50.37-36.3Zm59.38-72.86c-17.02,0-38.7-10.41-56.58-27.15-27.89-26.08-39.01-59.65-24.82-74.79,4.51-4.82,11.3-7.37,19.69-7.37,17.02,0,38.7,10.41,56.61,27.15,27.86,26.08,38.98,59.65,24.79,74.82-4.48,4.79-11.3,7.34-19.68,7.34Zm-2.74-167.64c-3.5,14.5-22.48,23.87-48.4,23.87a119.4,119.4,0,0,1-27.71-3.38c-37.14-8.94-63.37-32.62-58.51-52.79,3.47-14.5,22.45-23.87,48.37-23.87a119.123,119.123,0,0,1,27.71,3.38c37.13,8.94,63.37,32.62,58.54,52.8ZM1520,365.22c-12.81,6.57-30.17,10.75-48.81,11.79-2.94.16-5.87.25-8.79.25-34.49,0-61.15-11.3-61.98-26.26-.43-7.71,6.17-15.48,18.61-21.87,12.84-6.54,30.16-10.75,48.84-11.77,2.92-.15,5.87-.24,8.75-.24,34.53,0,61.18,11.27,62.01,26.23.44,7.74-6.17,15.51-18.64,21.87Zm-192.86-18.43c-22.17,6.2-44.26,9.61-62.16,9.61-20.46,0-33.39-4.33-35.5-11.92-1.94-6.94,5.5-16.49,20.42-26.25,15.64-10.23,37.62-19.56,61.89-26.38,22.21-6.2,44.29-9.61,62.2-9.61,20.46,0,33.39,4.33,35.5,11.92,4.15,14.89-33.54,39-82.35,52.64Zm-62.19,35.48c.74,5.25-3.99,11.27-12.96,16.59-9.52,5.59-22.7,9.8-37.04,11.82a124.307,124.307,0,0,1-17.72,1.29c-21.25,0-36.95-6.02-38.18-14.65-.77-5.25,3.96-11.3,12.96-16.59,9.52-5.58,22.67-9.79,37.01-11.82a126.3,126.3,0,0,1,17.79-1.28c21.22,0,36.92,6.02,38.15,14.65Zm-51.44-44.35c-10.6,10.01-26.26,19.32-44.14,26.13-16.8,6.39-33.85,9.92-47.98,9.92-15.23,0-25.58-4.15-28.32-11.36-2.61-6.76,1.72-16.15,11.82-25.74,10.6-10.02,26.29-19.32,44.14-26.11,16.81-6.43,33.85-9.95,47.98-9.95,15.24,0,25.59,4.15,28.32,11.36,2.61,6.76-1.72,16.16-11.82,25.74Zm-119.88,50.92a116.094,116.094,0,0,1,16.37-1.23c16.68,0,28.91,4.21,29.76,10.2.52,3.72-3.41,8.13-10.84,12.13-7.98,4.3-18.98,7.62-30.96,9.31a115.763,115.763,0,0,1-16.34,1.2c-16.71,0-28.96-4.17-29.79-10.17-.56-3.71,3.41-8.14,10.84-12.16C1070.65,393.82,1081.65,390.53,1093.63,388.84Zm-30.71-4.18c-8.14,6.42-19.81,12.13-32.92,16.09a110.388,110.388,0,0,1-30.96,5.01c-12.62,0-21.13-3.22-22.76-8.6-1.39-4.52,2.24-10.57,9.86-16.62,8.14-6.39,19.84-12.1,32.93-16.07a110.808,110.808,0,0,1,30.96-5.01c12.62,0,21.16,3.23,22.79,8.6,1.35,4.52-2.25,10.57-9.9,16.59ZM905.63,562.59a17.651,17.651,0,0,1-6.24,2.2,37.287,37.287,0,0,1-7.95.16c-6.76-.38-13.05-1.8-19.75-2.81-14.62-2.21-29.64-2.12-44.07,1.28-8.44,1.99-21.75,6.99-34.27,13.85-1.43-1.06-2.84-2.14-4.22-3.26a565.832,565.832,0,0,1,67.66-26.47c9.03-2.95,18.15-5.68,27.27-8.32,9.09-2.55,18.46-5.32,27.3-7.31a218.5,218.5,0,0,1,35.72-4.76,349.666,349.666,0,0,0-29.24,24.71c-3.93,3.67-7.56,8.03-12.23,10.73Zm35.28,25.35q-5.22-3.135-10.63-5.94c-4.37-2.27-9.31-4.34-10.99-9.08a10.371,10.371,0,0,1-.56-2.85c-.58-9.15,9.28-15.14,15.15-20.3,11.94-10.51,24.6-20.45,38.41-28.42a224.446,224.446,0,0,1,27.15-13.21c11.03-4.45,22.36-8.72,34.28-9.79,12.19-1.11,24.64,1.84,36.46,4.55a294.3,294.3,0,0,1,47.05,15.01c5.46,2.24,12.77,3.94,16.83,8.72,8.32,9.92-9.89,9.77-16.03,10.99a283.583,283.583,0,0,0-50.99-20.86l-.12-.03c-15.57-3.89-31.94-7.24-48.01-4.62-15.27,2.49-28.89,11.96-42.02,19.58-15.23,8.85-29.77,20.27-43.55,32.68,4.42-2.39,8.88-4.79,13.23-7.31,10.23-5.99,20.64-11.73,31.27-16.93,9.98-4.88,20.61-10.41,31.2-13.73,9.56-2.98,24.48-5.4,32.59,1.81,5.03,4.46,6.02,12.62,2.82,18.3-3.62,6.49-11.51,10.5-17.72,14.07-6.11,3.53-11.8,7.46-17.66,11.21-.7.43-1.38.89-2.09,1.35-6.19,4.04-12.88,7.34-19.06,11.46-5.43,3.63-10.52,8.4-16.35,11.35-10.38,5.25-21.91-2.76-30.67-8.02Zm69.24,66.13c-7.08-2.12-10.55-8.47-15.09-15.33-3.1-4.68-6.78-9.06-10.27-13.45-3.13-3.94-7.15-8.28-7.12-13.65a17.514,17.514,0,0,1,3.04-10.09c2.19-3.09,5.65-4.69,8.69-6.82q7.8-5.46,16.03-10.22a244.96,244.96,0,0,1,35.59-16.9,305.879,305.879,0,0,1,31.8-10.12q26.13-6.87,52.68-12.01c7.59-1.47,15.14-3.07,22.85-3.38,24.57-.92,46.29,21.74,62.38,37.69a283.566,283.566,0,0,1,29.64,34.37c5.68,7.71,17.17,20.85.62,23.62-2.12.37-21.9-.34-22.55-1.56-.21-.43-.43-.89-.67-1.32a216.063,216.063,0,0,0-24.88-36.82,240.555,240.555,0,0,0-29.3-29.83,54.1,54.1,0,0,0-16.36-9.43c-9.89-3.66-21.28-2.62-31.24-.52-11.95,2.55-24.02,5.38-36.27,8.57-34.59,9.06-63.61,22.3-88.71,40.36l.19.18c10.35-4.12,21.04-7.92,32.1-12.13,17.93-6.79,35.78-14.25,54.61-18.15,21.01-4.33,67.48-5.87,67.36,26.26-.07,19.1-17.14,27.61-33.17,31.76-22.05,5.72-45,6.7-67.05,12.78-10.54,2.9-18.94,7.26-30.17,6.9a18.378,18.378,0,0,1-4.72-.74Zm-4.98,244.81c1.1-7.32,2.62-14.57,4.2-21.79,1.24-5.72,1.64-12.57,5.36-17.32a23.107,23.107,0,0,1,4.44-4.36c8.14-6.04,18.92-5.29,29.13-4.54,6.96.52,13.93,1.03,20.87,1.76a420.426,420.426,0,0,1,54.92,9.64c37.47,9.12,73.59,23.38,107.65,41.41,13.24,7.03,26.91,13.6,34.74,27.08,9.61,16.65-1.6,36.89-7.87,52.56-3.43,8.6-7.89,16.92-11.82,25.34-4.88,10.38-9.76,24.23-24.57,20.73-2.18-.52-21.32-15.42-21.32-16.22,6.24-13.08,12.07-26.44,17.14-39.81,6.54-17.2,16.65-36.04,8.66-54.41-4.79-11.02-17.1-16.1-27.52-20.07-11.37-5.28-22.91-10.2-34.68-14.59a457.424,457.424,0,0,0-50.34-15.66c-16.25-3.99-33.94-4.63-49.85-9.24,6.14,1.78,12.29,3.68,18.61,5.59,21.87,6.57,43.34,13.79,63.45,24.79,15.3,8.33,30.47,18.89,36.55,35.97,5.53,15.45.5,37.75-16.83,44.2-14.4,5.35-30.38-2.33-43.61-7.71-4.92-1.97-9.71-3.78-14.5-5.5-11.87-4.26-23.22-10.06-35.15-14.32-15.62-5.58-31.9-8.98-47.37-14.64-12.46-4.56-22.38-14.89-20.29-28.87Zm-25.72,79.95c.91-2.38,1.87-4.69,2.74-6.93Q986.4,961,990.17,949.93c1.78-5.22,3.96-12.15,9.84-14.29,6.51-2.38,12.59-.71,19.08.8,4.91,1.15,9.84,2.29,14.72,3.56,12.74,3.32,25.37,7.22,37.75,11.71a439.193,439.193,0,0,1,72.73,34.27,479.88,479.88,0,0,1,41.77,27.52c12.07,8.82,27.43,18.22,33.08,32.77,7.13,18.36-8.81,36.46-17.84,51.38q-7.875,13.005-16.18,25.77c-3.13,4.79-8.17,13.85-14.29,14.92-5.38.95-11.48-1.35-15.29-5.03-1.36-1.32-15.6-15.94-15.6-16.4,10.32-14.71,20.15-29.64,29.3-44.85,6.58-10.92,12.55-21.09,11.17-34.37-1.16-11.08-7.68-20.52-17.09-26.29-.96-.58-1.91-1.14-2.86-1.7a454.284,454.284,0,0,0-111.74-55.31c10.38,3.44,20.49,11.52,29.64,17.35,9.52,6.08,19.54,12.01,28.29,19.23,11.24,9.28,22.14,22.61,25.03,37.16,3.11,15.82-4.6,32.65-21.9,35.44-16.09,2.58-28.07-2.52-42.6-9.3-5.56-2.61-11.21-5.81-16.86-8.97a431.753,431.753,0,0,0-39.92-21.64c-9.88-4.7-26-9.75-31.87-19.92-4.61-7.97-2.19-16.74.94-24.93Zm-38.61,76.46q5.16-8.565,10.03-17.29c3.63-6.51,6.38-15.56,14.07-18.36.13-.05.27-.1.41-.14,8.73-2.87,18.2,2.22,25.97,5.68,6.23,2.77,12.49,5.51,18.62,8.51a416.893,416.893,0,0,1,45.09,25.52,474.8,474.8,0,0,1,82.71,68.59c12.78,13.2,23.22,30.89,10.75,47.94-6.97,9.46-14.47,20.42-23.1,28.38-5.13,4.73-10.28,9.49-16.7,12.38-7.37,3.35-11.61,1.9-17.38-3.9-1.72-1.75-15.36-13.33-14.77-15.57,9.27-10.6,18.49-21.37,27.49-32.5,6.41-7.92,14.45-18.11,15.01-28.93.66-12.57-12.53-22.77-21-30.13q-10.83-9.405-22.21-18.12a447.026,447.026,0,0,0-46.5-31.33c-4.36-2.55-8.78-4.98-13.24-7.37,14.04,10.72,26.85,22.7,40.79,33.45.8.62,1.56,1.22,2.33,1.84,10.35,9.67,20.28,20.06,20.77,34.83.46,13.58-8.02,27.24-21.57,30.01-13.88,2.85-29.18-3.5-41.74-8.88-15.94-6.83-31.2-15.09-46.45-23.33-7.62-4.11-15.25-8.23-22.98-12.15-5.54-2.81-13.87-6.99-17.24-12.46-7.76-12.62,4.78-26.59,10.85-36.66ZM867.2,1159.38c3.73-10.18,14.41-19.52,21-28.02,6.26-8.07,10.93-17.64,19.56-23.61a20.311,20.311,0,0,1,6.12-2.88c7.32-2.05,15.33.07,22.24,3.46q11.475,5.625,22.78,11.6a434.537,434.537,0,0,1,45.02,27.55,461.916,461.916,0,0,1,42.48,33.55c12.44,11.05,27.53,22.94,35.88,37.4,4.05,6.98,8.41,16.13,5.46,24.3-2.76,7.61-10.04,14.12-15.75,19.47-9.09,8.54-18.46,16.86-27.98,24.97-3.63,3.1-6.88,7.5-11.24,9.49-4.64,2.12-10.16,3.59-14.53.46a66.524,66.524,0,0,1-11.76-10.81c-.62-.71-7.56-7.71-7.19-8.48,1.23-2.57,5.43-5.32,7.49-7.34q4.2-4.125,8.37-8.29,8.4-8.385,16.68-16.88c8.51-8.73,20.81-17.6,21.33-30.87.24-6.17-2.3-15.03-6.65-19.65-6.25-6.65-14.78-11.06-21.79-16.79a445.43,445.43,0,0,0-90.58-57.71c7.09,5.13,13.98,10.6,20.58,16.37a96.155,96.155,0,0,0,10.19,7.62c4.12,3.9,9,7.68,13.18,10.96,13.18,10.33,38.73,26.39,32.93,46.54-1.78,6.24-6.73,13.18-11.49,17.48-15.72,14.23-41.4,7.13-57.62-1.69-16.54-8.99-32.49-19.02-48.7-28.57-9.56-5.63-31.24-15.32-26.01-29.62Zm-51.68,64.91a24.555,24.555,0,0,1,3.83-9.78c2.92-4.59,6.94-8.66,10.38-12.66,6.34-7.37,13.15-16.9,23.1-19.57,10.94-2.93,23.72,7.45,32.49,12.6q17.04,10.095,33.11,21.71a455.307,455.307,0,0,1,61,53.29c5.99,6.26,11.95,12.59,17.51,19.2,3.99,4.76,10.32,12.16,10.72,18.58.71,11.33-12.35,19.96-20.27,25.77-9.49,7-19.42,18.92-31.42,20.82-5.1.8-9.8-1.1-13.79-4.11-.74-.55-10.1-8.97-9.12-9.89,2.73-2.49,5.44-5,8.16-7.53,15.32-14.12,47.11-35.53,28.57-59.53-3.47-4.48-7.99-8.48-11.43-11.79q-14.82-14.19-30.9-27.09-15.345-12.3-31.73-23.18c-1.04-.68-5.44-3.63-10.72-7.07a313.84,313.84,0,0,1,24.08,23.9c9.28,10.32,18.55,20.76,24.94,33.17,5.35,10.41,11.15,29.83,1.9,39.93-12.68,13.85-33.54,1.69-45.45-6.36-18.37-12.38-34.37-27.86-52.98-39.96-10.85-7.05-24.06-15.59-21.98-30.44Zm-44.9,46.68c7.86-9.32,14.29-19.51,26.61-23.03.24-.07.48-.13.73-.2,12.98-3.35,24.93,8.53,35,15.22a422.243,422.243,0,0,1,39.71,29.85,456.907,456.907,0,0,1,39.25,37.59q9.5,10.23,18.4,20.95c5.56,6.72,6.85,14.56,2.77,22.63-2.18,4.34-5.4,6.7-9.16,9.83q-8.88,7.41-17.66,14.99c-4.94,4.24-9.46,8.26-15.17,11.3-3.32,1.78-7.22,2.83-10.9,1.97a22.91,22.91,0,0,1-7.12-2.98c-.74-.56-6.36-6.67-6.36-6.79,0-3.1,13.74-13.1,16.25-15.47,6.13-5.78,12.49-11.37,18.46-17.29,16.95-16.85-2.46-41.38-15.54-53.23-7.47-6.69-15.33-12.9-22.67-19.69-3.59-3.28-6.63-6.14-10.35-9.24-5.84-4.79-12.32-8.82-17.97-13.82-.61-.37-1.23-.77-1.84-1.17,6.57,8.17,13.58,15.18,19.63,24.05,9.27,13.63,19.65,28.9,20.42,46.01.49,11.43-4.69,25.71-18.28,26.26-13.7.59-27.3-8.08-38.3-15.26-12.11-7.92-23.88-16.33-35.84-24.47-6.05-4.12-12.14-8.16-18.35-12.02-4.6-2.86-10.71-7.53-11.53-13.32-1.8-12.77,12.47-23.97,19.82-32.66Zm-72.88,102.84c.73-7.31,4.9-14.52,9.02-20.43,7.62-10.93,18.36-27.81,32.59-31.68a22.881,22.881,0,0,1,13.78.55c10.3,3.56,20.26,11.88,29.18,17.98A428.373,428.373,0,0,1,825,1373.86q13.7,12.21,26.33,25.49c6.66,6.97,18.52,16.06,17.48,26.78-1.04,10.75-10.81,15.79-17.85,22.51-3.87,3.66-7.67,7.4-11.49,11.12-6.17,6.02-15.26,13.05-24.17,8.2a92.369,92.369,0,0,1-7.03-6.33c0-1.62,5.98-6.43,7.18-7.7q4.065-4.335,8.18-8.62c5.51-5.75,11.47-11.2,16.74-17.15,8.44-9.53,1.92-24.72-5.2-32.87-.19-.21-.4-.42-.56-.61-7.83-9-16.86-16.4-26.11-23.87-10.23-8.23-20.55-16.3-31.33-23.83-4.55-3.19-9.67-6.02-14.59-9.06q-2.115-.915-4.23-1.84a.814.814,0,0,0-.25-.09c5.9,5.71,11.33,11.79,17.69,16.86a142.115,142.115,0,0,1,23.13,23.89c9.73,12.53,23.13,35.39,2.95,45.4-18.03,8.97-39.65-.8-55.75-9.56-11.49-6.26-22.54-13.27-34.12-19.35-6.56-3.43-15.07-11.33-14.26-19.44Zm-42.2,66.16c6.11-12.96,12.48-26.49,20.59-38.32a14.144,14.144,0,0,1,8.39-6.08c9.41-2.37,21.34,4.78,29.31,9.11a417.225,417.225,0,0,1,45.16,28.44c11.4,8.2,22.36,16.98,32.92,26.23,7.83,6.88,22.91,17.69,16.95,30.26-2.09,4.38-6.11,7.74-9.37,11.27-7.31,7.99-14.37,16.21-21.31,24.54-3.78,4.58-11,9.95-17.51,9.03-1.2-.18-8.48-5.37-8.48-5.75,0-1.46,3.82-5.11,4.74-6.34,1.73-2.28,3.48-4.56,5.24-6.82q5.355-6.885,10.87-13.62c6.09-7.46,15.53-16.55,14.42-27.18-.87-8.23-7.87-14.29-13.92-18.98-3.81-2.95-7.68-6.18-11.73-9.41-4.39-3.53-8.57-6.91-13.15-10.19a431.028,431.028,0,0,0-42.6-26.76c3.6,3.17,7.16,6.33,10.78,9.4,11.71,9.86,24.08,20.89,31.73,34.34,9.31,16.4,16.62,52.21-13.14,50.7-13.79-.7-26.83-5.71-39.13-11.72-10.82-5.29-24.87-10.62-33.81-18.79-9.41-8.6-12.43-21.75-6.95-33.37Zm38.59,221.85q-9.225,20.955-16.72,42.6c-.77,2.18-1.5,4.33-2.21,6.51-7.65,22.94-15.45,48.8-20.98,75.95.86-10.41,2.05-21.41,3.75-32.99l.25-1.47c2.96-17.78,6.33-35.38,10.98-52.82q3.87-14.46,8.59-28.68c2.64-7.94,7.05-15.25,7.84-23.75.84-8.89-4.12-14.47-11.4-18.72-3.94-2.3-8.08-4.22-12.11-6.35a131.691,131.691,0,0,0-12.2-5.66q-11.415-5.385-23.1-10.13c9.4,3.81,21.26,18.06,23.69,27.92,2.27,9.37-1.54,20.03-4.83,28.72-3.47,9.19-5.41,18.89-7.31,28.6a413.861,413.861,0,0,0-7.62,57.95l-.03.49c-.95,15.08-1.07,29.18-.65,42.23a435.053,435.053,0,0,1-13.3-55.23,502.171,502.171,0,0,1-7.04-83.93c-.04-13.62-1.2-29.14,1.6-42.52,4.6-21.97,31.21-6.81,42.21-1.79a406.2,406.2,0,0,1,39.81,20.73c11.73,7.03,4.88,22.88.77,32.31Zm29.11-57.47c-4.23,7.16-7.92,18.16-17.11,19.78-1.32.25-9.55-1.57-8.88-3.07a5.252,5.252,0,0,0,.28-.58,355.455,355.455,0,0,1,18.32-36.17q5.34-9.48,11.11-18.71c2.96-4.73,6.04-9.88,6.8-15.55.38-2.77-.56-5.39-1.39-7.93-3.57-10.78-14.55-16.42-23.63-22.23-14.56-9.31-30.59-16.5-45.15-25.22a154.752,154.752,0,0,1,26.96,20.27,104.243,104.243,0,0,1,8.78,9.46,55.5,55.5,0,0,1-.86,54.67c-7.74,13.42-23.25,17.17-37.69,16.8a58.761,58.761,0,0,1-25.76-6.64c-21.72-11.2-17.09-37.52-12.47-56.99,2.82-11.89,5.03-27.06,11.42-37.46,8.03-13.06,17.57-13.73,30.47-8.03a389.172,389.172,0,0,1,49.13,26.37q12.21,7.65,23.86,16.09c6.08,4.39,15.48,9.15,17.2,17.23,1.78,8.5-3.35,14.07-7.83,20.61q-6.81,9.9-13.21,20.08c-3.53,5.68-6.94,11.46-10.38,17.2Zm690.39-491.24q-6.495,5.58-13.12,11.05a1190.688,1190.688,0,0,1-104.53,77.09q-29.955,19.62-59.16,38.18c-19.5,12.41-38.55,24.6-57.46,36.15-37.81,23.13-74.7,44.59-109.71,65.39-35.04,20.76-68.24,40.91-99.02,60.87-30.8,19.93-59.15,39.69-84.71,59.25l-.18.13c-46.9,35.78-83.97,70.92-111.71,102.22-9.86,11.06-19.41,22.42-28.51,34.15-1.69,2.22-3.37,4.39-5.06,6.61,1.2-1.78,2.43-3.56,3.65-5.35,21.1-29.91,49.67-64.28,86.86-100.19l.16-.15c40.52-39.29,91.13-80.05,150.03-121.27,58.82-41.4,125.9-83.17,197.47-128.72,71.75-45.24,146.54-97.73,216.38-162.7,17.45-16.22,34.53-33.29,51.02-51.29,16.31-17.97,32.58-36.12,48.84-54.79,32.37-37.32,64.35-76.54,92.58-119.57a591.1,591.1,0,0,0,40.51-71.56,430.556,430.556,0,0,0,27.83-76.27,497.5,497.5,0,0,0,14.74-156c-3.19-51.11-14-100.55-32.19-145.61-18.12-45.06-43.92-85.72-75.93-118.28a221.432,221.432,0,0,0-53.84-40.64,233.723,233.723,0,0,0-60.63-22.24c-41.25-9.03-81.73-7.77-118.81-2.46-37.16,5.44-71.29,15.08-102.25,26.11a713.678,713.678,0,0,0-83.63,36.46l-.62.31c-35.84,18.34-66.31,35.57-91.99,48.68-38.3,19.57-77.49,37.53-118.19,51.54a564.178,564.178,0,0,1-77.25,20.91c-22.03,4.22-48.82,1.12-65.92,17.58,8.24.03,15.8-3.54,23.52-4.64,9.07-1.29,17.89-2.49,26.9-3.84a154.725,154.725,0,0,1,30.2-1.04c11.83.57,10.82,9.32.2,11.69-10.83,2.41-23.78,6.71-34.9,6.53,42.01.66,84.36-3.8,126.09-11.86-21.29,9.18-43.13,17.21-66.17,22.61,21.95,1.02,44.16-.43,66.2-3.13,6.37.37,14.74,3.42,9.12,10.88-3.26,4.34-8.92,6.42-14.17,8.28a386.763,386.763,0,0,0-47.23,14.45c-23.34,8.76-45.6,19.53-67.22,31.25,23.21-8.03,46.73-14.91,70.47-19.6a368.729,368.729,0,0,1,58.27-6.85,13.912,13.912,0,0,0,3.83.97c-.92,2.77-3.61,3.8-6.57,4.44a362.6,362.6,0,0,0-39.25,7.07,462.362,462.362,0,0,0-75.97,25.52c-12.67,5.44-24.83,12.49-38.12,16.1-6.58,1.79-19.56,11.9-25.85,5.51-4.4-4.47-.75-14.5,1.8-18.98,6.53-11.49,21.79-15.39,32.84-21.63-2.79,1.6-6.69,2.24-9.77,3.26-2.95.95-5.71,2.03-8.66,2.8-1.1.27-2.12.65-3.19.98-.95.34-1.87.64-2.79.98-12.19,4.3-25.16,10.11-33.7,20.15-9,10.6-9.65,27.55-3.19,39.68,6.91,12.96,18.03,23.71,16.86,39.65-4.76-5.8-10.94-10.9-16.65-15.72-4.02-3.41-8.81-5.84-12.81-9.18,9.65,8.07,18.15,17.93,23.35,29.48,2.58,5.74,2.55,8.91.95,14.77a76.682,76.682,0,0,1-7.52,17.91c-3.75,6.5-5.74,13.63-10.66,19.13-2.18,2.46-2.89,5.23-6.45,6.02-2.67.62-5.62-.15-8.2-.92a49.39,49.39,0,0,0-13.73-2.37c5.5.06,12.13,4.21,15.97,7.89,4.21,4.06,1.88,10.51.15,15.36-2.48,6.92-6.45,13.55-9.64,20.15-3.81,7.89-7.62,15.76-11.37,23.65-2.39,5.01-5.99,13.76-11.95,15.3-2.27.61-4.39-.43-6.6-1.02-2.36-.58-4.98-.67-7.34-1.2,4.51,1.35,10.32,3.04,12.26,7.52,2.06,4.73-.03,9.68-1.66,14.25-2.49,6.94-3.81,13.85-5.65,20.94-1.66,6.27-.96,12.9-2.52,19.2-.8,3.26-1.63,7.16-4.61,9.12-3.87,2.55-7.93,1.47-11.98.43,3.72,1.84,8.08,3.87,9.15,8.26,1.17,4.7,0,10.69-1.02,15.29-1.47,6.73-3.93,13.18-5.19,19.97-.98,5.22-1.56,20.27-10.69,14.62-2-1.2-5.19-2.64-6.73-4.67,2.83,4.64,7.19,8.88,8.76,13.79,2.3,7.19-.8,18.46-3.07,25.46-2.09,6.51-6.79,12.56-14.28,11.89-9.95-.93-19.63-8.3-29.95-9.25-17.23-1.56-34.43.46-51.48,2.95-12.42,1.81-17.25-9.01-20.26-19.38-.9-3.08-4.66-10.47-3.18-13.71,2.12-4.66,12.56-3.05,16.62-3.07,8.47-.07,17.73-.39,26.04-2.08,6.66-1.36,10.93-2.86,16.68,1.72,4.02,3.2,6.79,8.45,9.46,12.59-.15-7.77-.3-15.69.06-23.4,7.89-1.81,12.69-7.59,15.91-14.53a41.967,41.967,0,0,0,3.41-4.3,78.7,78.7,0,0,0,8.75-16.95c4.45-11.58,7.13-23.34,9.31-35.1,2.15-11.74,3.69-23.5,5.03-35.23,1.44-11.67,2.43-23.5,4.34-34.77,4.33-22.88,11.46-45.3,19.99-67.14,8.52-21.9,18.28-43.34,27.65-64.9-10.41,21.1-21.19,41.99-30.84,63.55s-17.99,43.83-23.53,67.02c-2.64,11.89-4.14,23.44-6.14,35.05-1.38,8.26-2.83,16.49-4.51,24.63.71-6.66,1.47-13.29,2.52-19.9,5.15-32.41,10.83-64.78,18.92-96.6,7.38-28.98,20.2-51.71,33.64-78.1,2.34-4.58,5.11-9.01,5.35-14.11.39-8.53.22-7.02-8.14-9.22-11.07-2.91-24.64-2.54-36.75-1.83,4.66,10.09,21.2,7.67,24.5,20.33,2.12,8.14-3.89,17.6-7.83,24.27-3.84,6.51-8.39,13.26-14.8,17.51-7.37,4.88-11.79,4.57-18.64,0a62.914,62.914,0,0,0-8.45-4.77c-.8-.34-1.5-.65-2.09-.86l-5.25-2.12,4.42,3.53c5.8,4.58,14.9,9.03,15.15,17.29.36,10.81-8.57,19.66-14.26,27.82-3.53,5.07-7.89,14.1-14.86,14.84-7.71.8-10.84-9.86-16.4-13.73a22.058,22.058,0,0,0-2.18-1.45,51.2,51.2,0,0,0-5.65-3.01,50.037,50.037,0,0,1,4.64,4.3s1.63,1.81,1.66,1.87a58.77,58.77,0,0,1,6.18,8.32c6.3,10.48,4.7,20.21-3.29,29.58-4.24,4.97-11.46,14.77-19.07,13.85-6.61-.8-10.47-10.47-16.52-13.58a13.471,13.471,0,0,0-2.09-.98,41.265,41.265,0,0,0-5.29-1.9,43.278,43.278,0,0,1,4.45,3.28s1.57,1.44,1.63,1.48c5.93,5.19,12.47,12.44,10.6,20.7-2.06,9.1-8.42,16.28-15.45,21.96-4.3,3.47-9.76,7.74-15.33,8.75-7.74,1.41-8.44-4.33-11.33-10.1-.52-1.08-.99-2-1.42-2.7-1.2-2.25-2.55-4.4-3.87-6.52.86,2.4,1.66,4.76,2.37,7.16,0,0,.77,2.83.8,2.89,4.45,15.3-1.11,24.14-14.5,31.98-5.46,3.23-11.48,8.01-18,8.81-9.18,1.13-9.64-6.18-12.66-12.96-.3-.46-.61-.89-.86-1.25-.4-.5-.77-.92-1.16-1.39.61,5.5,1.78,10.17,1.53,15.82-.18,4.94-.95,9.89-3.44,14.22-6.37,11.16-10.04,22.17-18.83,31.7-8.13,8.8-20.51,10.88-31.96,10.89-6.1,0-9.93-1.6-13.93-5.65-2.82-2.86-6.91-7.93-7.57-12.01-.98-6-1.62-12.62,1.99-17.97,3.72-5.51,8.86-9.98,13.17-15.02,5.69-6.66,12.4-11.84,17.88-18.59,2.35-2.89,4.47-5.95,6.79-8.87,2.22-2.78,4.77-4.79,7.23-7.28.66-.66,2.17-1.88,2.35-2.73-3.58,2.49-7.69,4.27-11.14,7.26-2.05-1.84-2.93-4.39-5.17-6.23a45.769,45.769,0,0,0-6.85-4.38c-1.07-.62-2.02-1.2-3.07-1.81a15.367,15.367,0,0,1-2.95-1.48c2.43,2.86,5.59,5.07,8.32,7.59,1.87,1.75,5.28,4.27,5.95,6.91,1.26,4.84-6.89,10.86-9.85,13.75-5.7,5.59-11.37,11.19-17.37,16.47-5.29,4.65-11.1,9.68-13.69,16.44-2.67,6.94-2.09,14.9-.16,21.99.58,3.96,2.21,7.73,2.83,11.51-10.23.52-22.61.28-32.44-2.79-18.64-5.77-45.85-12.22-50.12-34.68-2.67-13.88,5.07-27.92,10.88-39.83,1.93-3.96,3.84-7.9,5.65-11.79,6.82-14.68,17.33-24.42,28.44-34.74a49.869,49.869,0,0,0,8.11-8.94c.74-1.17,1.44-2.36,2.12-3.57.62-1.07,1.1-2.82,1.9-3.71-4.55,4.98-9.46,9.52-14.22,13.98-4.52,4.15-8.51,8.08-13.82,11.18-3.96,2.31-5.1,2.55-5.9-2.4a42.986,42.986,0,0,1-.21-9.12c.4-5.62.8-11.43.83-16.86,0,2.59-2.12,6.17-2.67,8.82a68.689,68.689,0,0,0-1.29,9.16c-.55,6.02-.4,12.07-.86,18.08-.73,10.01-6.54,19.75-10.84,28.56-8.6,17.67-14.47,38.73-30.32,51.29-4.46,3.54-12.72,14.24-17.87,5.79a21.3,21.3,0,0,1-2.78-8.26c-.68-6.27-.18-11.39,4.52-15.78,4.68-4.38,9.25,1.1,11.95,4.29-1.15-1.37.79-8.07,1.17-9.71a64.987,64.987,0,0,1,3.2-9.78c5.73-13.97,11.51-27.3,20.32-39.76,2.57-3.63,6.29-7.39,8.42-11.52,2.59-5,3.13-10.56,4.31-16.04,1.88-8.69,3.59-17.43,6.12-25.96,7.24-24.37,24.22-46.41,40.03-65.79-5.72-12.37-11.41-23.28-14.08-36.62.12-.21.25-.42.38-.63,1.97,2.66,3.68,5.03,5.06,6.94l2.1,2.83,4.84,6.75-4.1-7.22-1.78-3.06c-1.32-2.17-3.04-4.88-5.1-7.89a117.528,117.528,0,0,1,7.51-10.62c1.17-1.45,2.3-2.8,3.42-4.08l4.96,5.85-4.46-6.39c2.78-3.12,5.37-5.75,7.49-7.79l2.9-2.74c2.45-2.24,4.99-4.39,7.59-6.47-2.78,1.87-5.51,3.82-8.15,5.88-.87.67-1.91,1.5-3.14,2.53a102.135,102.135,0,0,0-7.64,7.23s-2.29-3.21-2.29-3.22c-2.66-3.6-6.48-8.59-11.26-14.04,1.14-1.17,2.28-2.29,3.39-3.34a107.7,107.7,0,0,1,9.82-8.16c.96,1.17,1.86,2.27,2.67,3.25l2.56,3.07,5.94,7.29-5.22-7.8s-2.26-3.3-2.26-3.31c-.72-1.02-1.56-2.17-2.45-3.39.24-.17.51-.37.76-.55l2.98-2.04c2.49-1.67,5.11-3.15,7.76-4.58-2.78,1.19-5.54,2.45-8.21,3.91-.9.45-1.92,1.06-3.18,1.78-.25.15-.55.35-.81.51-3-4.05-6.9-8.97-11.51-14.1.41-1.93.91-3.84,1.45-5.72,1.04-.64,2.08-1.29,3.16-1.92,3.23-1.9,6.45-3.59,9.56-5.08,1.93,2.53,3.62,4.8,5.04,6.67l2.43,3.18,5.63,7.52-4.9-8s-2.12-3.39-2.12-3.4c-1.23-1.89-2.75-4.17-4.5-6.68,2.62-1.19,5.18-2.29,7.61-3.2a107.551,107.551,0,0,1,12.9-3.9c1.33,2.01,2.56,4.09,3.7,6.22-.85-2.18-1.82-4.31-2.87-6.42.3-.07.66-.17.98-.23l3.55-.74c2.96-.57,5.96-.94,8.97-1.25-3.03.03-6.08.15-9.12.47-1,.06-2.2.25-3.64.42-.4.05-.87.15-1.3.21-.37-.74-.81-1.55-1.35-2.5a82.4,82.4,0,0,0-10.8-14.24c.65-.48,1.31-.94,1.96-1.41,2.66-.89,5.42-1.75,8.31-2.51,3.78-.98,7.46-1.83,10.99-2.58,1.86,2.73,3.39,5.22,4.53,7.24l1.61,2.87c1.22,2.27,2.32,4.61,3.32,6.99-.71-2.48-1.56-4.94-2.51-7.35-.32-.86-.76-1.89-1.29-3.07a67.73,67.73,0,0,0-3.79-7.06c8.47-1.74,15.86-2.91,21.16-3.9.34,1.14.67,2.3.9,3.49-.05-1.2-.17-2.4-.33-3.61.39-.07.84-.14,1.22-.22l3.59-.73,8.91-1.87-9.07,1.09s-3.56.39-3.64.4c-.37.05-.82.1-1.2.15-.04-.25-.06-.49-.11-.74-.1-.66-.27-1.44-.48-2.35a39.349,39.349,0,0,0-2.33-6.42c2.78-1.23,5.54-2.49,8.25-3.78q5.505-2.625,11.06-5.12c.3,1.42.59,2.75.85,3.85l.59,2.36,1.41,5.55-.53-5.69s-.21-2.42-.21-2.43c-.13-1.11-.3-2.46-.49-3.9,7.55-1.12,14.39-2.14,19.89-3.05.51,2.49,1.09,4.95,1.79,7.38q-.615-3.75-.95-7.52c2.35-.39,4.45-.76,6.26-1.12l3.57-.71,8.84-1.89-9,1.1s-3.53.39-3.61.4c-1.77.22-3.86.47-6.17.75,0,0-.17-2.17-.17-2.18-.06-.68-.12-1.45-.17-2.25q9.555-3.9,19.16-7.64l.26.88a50.176,50.176,0,0,1,1.17,5.63,47,47,0,0,0-.3-5.79c-.03-.34-.07-.71-.12-1.12,9.89-3.86,19.82-7.66,29.71-11.55,27.56-10.84,53.51-24.09,80.25-36.65,6.34-2.98,13.32-5.74,19.03-9.86,4.52-3.27,10.86-5.1,14.54-9.41-6.23,2.94-13.61,4.12-20.23,5.9-7.33,1.98-14.82,3.42-21.98,5.97-2.95,1.05-6.99,2.97-10.15,3.23a29.641,29.641,0,0,1,2.43-2.46c7.19-6.82,15.07-12.3,22.65-18.61,13.54-11.27,30.79-19.29,46.84-26.32,20.2-8.85,40.11-17.46,60.66-24.74,20.7-7.34,42.06-15.08,63.79-21.8q-9.435,4.56-18.62,9.5c-34.06,18.34-65.56,40.2-95.31,63.75-29.76,23.57-57.8,48.86-85.23,74.71,30.36-22.3,61.2-43.89,93.08-63.33s64.85-36.7,98.98-49.99c34.09-13.32,69.33-22.53,104.8-26.43,8.85-.97,17.77-1.65,26.58-1.97,8.53-.29,17.62-.12,27.29-.1h.62c-11.23,21.79-44.18,30.06-63.41,39.51-28.16,13.79-56.27,23.32-86.3,31.7-25.74,7.22-52.86,14.13-73.11,32.74-.9.84-1.74,1.73-2.58,2.63a60.473,60.473,0,0,1,8.58-6.21c8.08-5.63,17.38-9.4,26.81-12.3,11.61-3.53,23.59-5.8,35.57-8.08,5.98-1.14,12.01-2.24,17.99-3.56l17.85-4.24c23.75-5.84,47.36-12.25,70.58-20.18,23.19-7.95,45.98-17.39,67.52-29.51,35.6-20.07,66.41-47.29,99.88-70.5,49.24-34.14,101.56-61.32,158.19-80.98,46.31-16.07,94.81-27.26,143.69-26.55A306.343,306.343,0,0,1,1505,188.83c43,22.95,80.24,55.98,110,94.54,29.82,38.59,52.45,82.6,67.73,128.9,15.5,46.28,22.41,95.05,23.95,143.9a554.035,554.035,0,0,1-2.33,73.13,588.644,588.644,0,0,1-11.89,72.2,680.569,680.569,0,0,1-47.99,138.17,408.949,408.949,0,0,1-36.38,62.93,671.411,671.411,0,0,1-45.48,57.3c-47.27,54.07-94.61,106.44-148.97,153.18ZM1711.2,742.82a518.609,518.609,0,0,1-30.13,78.38c-6.05,12.53-12.57,24.66-19.69,36.52q-10.59,17.88-22.14,34.92c-30.83,45.47-66.43,86.46-104.24,123.48-3.56,3.49-7.17,6.91-10.77,10.33,16.69-18.64,33.65-37.17,50.12-56.33,16.18-18.84,31.83-38.34,45.98-59.01a422.047,422.047,0,0,0,37.03-65.38,693.665,693.665,0,0,0,47.73-141.37,599.539,599.539,0,0,0,11.5-73.85,566.609,566.609,0,0,0,1.72-74.71c-1.99-49.66-9.5-99.55-25.78-146.79-16.04-47.2-39.54-91.97-70.4-131.19-30.79-39.17-69.24-72.69-113.52-95.83q-12.84-6.765-26.28-12.27c-31.33-12.86-64.58-18.93-98.01-23.27-12.44-1.61-25.04-3.12-37.6-3.12-8.31-.4-17.13,1.29-25.32.21,3.14-2.79,7.78-3.49,11.78-4.26q8.01-1.53,16.07-2.71a273.066,273.066,0,0,1,128.29,10.64,318.624,318.624,0,0,1,34.1,13.41,332.361,332.361,0,0,1,63.92,39.06c19.96,15.63,38.33,34.25,55.13,54.61a425.287,425.287,0,0,1,44.93,66.56,459.1,459.1,0,0,1,32.62,75.95c17.48,53.17,26.54,110.6,27.22,169.21a601.847,601.847,0,0,1-24.27,176.8Z" fill="#181818"/>
      <path id="Path_148" data-name="Path 148" d="M479.51,584.37c-3.07,1.39-6.1,2.87-9.08,4.48-.98.52-2.16,1.17-3.47,1.95l-.08.04a100.808,100.808,0,0,0-8.82,5.92l-1.67-3.65h0c-1.97-4.12-4.82-9.84-8.54-16.2,1.33-.98,2.65-1.9,3.93-2.77a108.967,108.967,0,0,1,11.14-6.48c.73,1.36,1.42,2.63,2.04,3.75h0l1.96,3.57,4.54,8.42-3.74-8.81-1.62-3.74h0c-.53-1.16-1.14-2.48-1.8-3.86.26-.13.57-.29.82-.4l.02-.02,3.31-1.52c2.75-1.23,5.59-2.26,8.46-3.24-2.95.71-5.9,1.49-8.79,2.48-.96.28-2.08.73-3.38,1.2l-.08.03h0c-.27.11-.6.25-.89.36a195.3,195.3,0,0,0-10.96-19.85c2.6-1.14,5.28-2.25,8.09-3.32,3.52-1.34,6.99-2.47,10.33-3.41,1.43,2.89,2.69,5.49,3.75,7.62h0l1.81,3.65,4.2,8.6-3.39-8.96-1.47-3.8h0c-.87-2.13-1.95-4.71-3.22-7.55,2.8-.75,5.51-1.38,8.06-1.87a108.508,108.508,0,0,1,13.39-1.63c.94,2.27,1.79,4.59,2.52,6.95-.44-2.35-1.02-4.68-1.67-6.99.32-.02.68-.04.99-.06h.02l3.63-.11c3.02-.05,6.04.12,9.05.34-2.99-.5-6.01-.94-9.05-1.16-.99-.11-2.2-.15-3.59-.22h-.07c-.4-.02-.89-.01-1.32-.02-.24-.81-.52-1.71-.88-2.77h0a84.676,84.676,0,0,0-8.46-16.99c3.55-.61,7.3-1.11,11.21-1.44s7.67-.52,11.28-.64c1.33,3.09,2.39,5.87,3.15,8.12h0l1.06,3.19q1.185,3.765,2.01,7.66c-.25-2.64-.64-5.27-1.15-7.88-.16-.93-.41-2.04-.71-3.33h0a68.737,68.737,0,0,0-2.45-7.81c8.65-.24,16.14-.09,21.52-.15.13,1.22.24,2.44.27,3.69.16-1.23.26-2.45.32-3.7.4,0,.84,0,1.22-.01h.02l3.66-.09,9.11-.3-9.12-.52-3.57-.24h-.08c-.37-.02-.82-.05-1.21-.07,0-.26.03-.51.03-.77.03-.67,0-1.49-.05-2.45h0a50.385,50.385,0,0,0-2.86-12.88c4.64,0,9.64.07,14.87.22,2.55.08,5.02.15,7.45.22.04,1.5.08,2.89.15,4.05h0l.15,2.49.39,5.86.5-5.84.23-2.48h0c.08-1.15.15-2.54.22-4.03,7.63.22,14.55.42,20.13.49.06,2.6.18,5.2.43,7.78.04-2.6.19-5.18.42-7.77,2.38.03,4.52.03,6.33,0h.02l3.64-.09,9.04-.33-9.06-.5-3.55-.23h-.07c-1.78-.1-3.88-.22-6.21-.35l.22-2.22h0c.18-2.03.48-4.49.8-7.24,3.5-.19,7.09-.43,10.8-.71,2.96-.23,5.82-.49,8.64-.77.02.18.05.41.07.58h0l.25,2.48a54.96,54.96,0,0,1,.14,5.89,52.678,52.678,0,0,0,.75-5.89c.08-.7.11-1.55.12-2.55h0c0-.2-.01-.45-.02-.65,14.02-1.43,25.99-3.37,33.42-4.9h.02l4.27-.93c3.54-.78,7.06-1.62,10.58-2.49q-5.37.915-10.75,1.69l-4.23.59h-.09c-7.46,1.07-19.37,2.66-33.28,3.97a51.947,51.947,0,0,0-1.75-10.03,104.367,104.367,0,0,0,8.98-5.67,117.664,117.664,0,0,1-27.25,10.78c-3.11.8-6.85,1.69-11.15,2.61l-.24.06c-6.11,1.32-13.39,2.64-21.66,4.05-5.09.89-18.65,3.26-22.87-.48-7.67-6.81,5.76-20.82,9.94-25.19-7.74,6.04-13.8,13.81-21.31,19.92-7.79,6.33-15.22,12.04-23.97,17.1-4.49,2.59-8.88,5.25-13.07,8.05a142.847,142.847,0,0,0-19.09,15.71,99.342,99.342,0,0,0-19.99,28.5,138.108,138.108,0,0,0-9.86,29.88c-2.47,11.91-6.91,23.51-9.16,35.41-1.75,9.31-3.7,19.88-8.58,28.21-4.78,8.14-10.91,15.19-16.26,22.99a66.391,66.391,0,0,1,18.58-17.2c14.07-8.39,5.18,24.45,3.96,29.98a216.053,216.053,0,0,0,6.25-24.66c3.2-5.05,7.36-12.21,12.59-20.09,1.94,3.79,3.56,7.18,4.83,9.89h0l1.79,3.86q2.055,4.56,3.9,9.21-1.44-4.8-3.08-9.54c-.36-1.12-.86-2.46-1.45-4.02h0c-1.16-3.05-2.78-6.88-4.83-11.14,2.2-3.25,4.56-6.59,7.13-9.96,1.68-2.19,3.39-4.23,5.11-6.21,1.46,3.04,2.7,5.74,3.74,7.91h0l1.55,3.25,3.55,7.68-2.73-8.01-1.2-3.4h0c-.91-2.43-2.12-5.47-3.6-8.88a117.922,117.922,0,0,1,9.31-9.37c1.4-1.26,2.76-2.41,4.09-3.5l3.83,6.79-3.24-7.25c3.3-2.66,6.32-4.83,8.75-6.51h.03l3.34-2.27c2.81-1.83,5.7-3.54,8.63-5.17Zm96.4-104.66c.4-.15.82-.32,1.2-.48a136.743,136.743,0,0,0,15.32-7.16,70.041,70.041,0,0,1,2.04,9.14c-2.78.26-5.61.5-8.53.72-3.56.28-7.02.52-10.38.74.12-.95.24-1.97.36-2.97Zm-1.98.77c-.06.76-.14,1.58-.2,2.31-2.74.17-5.36.32-7.91.46C568.83,482.3,571.52,481.38,573.93,480.48Zm-15.6,4.93c4.65-.1,9.76-.28,15.24-.56-.2,2.67-.33,5.08-.34,7.06h0v2.24c-5.55-.31-12.4-.68-20.01-.98.06-1.95.04-4.12-.04-6.41q2.67-.66,5.14-1.35Zm-65.51,46.42h0l1.01,2.29a85.435,85.435,0,0,0-13.17,1.08c-2.72.44-5.6,1.06-8.59,1.82-2.22-4.84-4.99-10.4-8.35-16.18a82.211,82.211,0,0,1,13.63-4.74c1.89-.49,3.92-.92,5.99-1.32A120.458,120.458,0,0,1,492.82,531.83Zm51.3-42.89c2.45-.56,4.79-1.11,7.08-1.67.12,2.07.21,4.06.26,5.85-2.39-.09-4.82-.17-7.33-.25-5.51-.16-10.78-.17-15.64-.07-.04-.11-.09-.21-.13-.32,5.53-1.24,10.83-2.38,15.76-3.53ZM517,495.12c.33-.08.64-.15.96-.23,2.78-.06,5.8-.12,9.04-.12a77.968,77.968,0,0,1,3.8,13.02h0l.42,2.36c.03.22.05.44.08.67-5.52-.29-13.21-.71-22.15-.56a99.04,99.04,0,0,0-5.49-11.41c4.52-1.39,8.99-2.62,13.34-3.73Zm-30.1,9.95a139.011,139.011,0,0,1,14.69-5.58c2.15,3.76,4.04,7.45,5.56,10.8-3.39.08-6.93.25-10.58.55a116.993,116.993,0,0,0-12.21,1.71c-.75-1.13-1.53-2.27-2.36-3.41-.31-.43-.62-.83-.92-1.24,1.92-1,3.87-1.95,5.82-2.82Zm-7.72,3.81c.37.5.74.96,1.11,1.48.64.88,1.25,1.75,1.85,2.63-1.83.4-3.6.82-5.28,1.3a71.639,71.639,0,0,0-13.37,5.22,96.489,96.489,0,0,1,15.69-10.63Zm-20.75,15.14c.48-.46.97-.89,1.46-1.34.59-.3,1.23-.62,1.92-.94,3.31,5.64,6.14,11.04,8.5,15.75-3.3.9-6.7,1.98-10.15,3.29-2.96,1.12-5.77,2.32-8.46,3.54-.03-.05-.06-.09-.09-.14-1.47-2.28-2.98-4.39-4.49-6.42a92.5,92.5,0,0,1,11.31-13.73Zm-18.52,26.05a103.036,103.036,0,0,1,6.02-10.47c1.29,1.79,2.57,3.63,3.84,5.59-3.62,1.69-6.92,3.4-9.94,5.05a.775.775,0,0,0,.07-.16Zm-1.24,2.79c3.64-1.89,7.71-3.91,12.22-5.94,4.66,7.27,8.48,14.19,11.42,19.62a85.208,85.208,0,0,0-11.51,6.09q-1.935,1.215-3.93,2.63c-1.66-2.78-3.46-5.64-5.44-8.55-1.79-2.66-3.63-5.1-5.47-7.43.84-2.15,1.75-4.28,2.72-6.42Zm-8.64,25.23a157.372,157.372,0,0,1,5.07-16.55c1.53,2.01,3.07,4.1,4.59,6.35,1.99,2.93,3.83,5.8,5.54,8.57a106.634,106.634,0,0,0-11.11,9.32c-.76.74-1.47,1.46-2.2,2.2-1.05-1.54-2.1-2.98-3.13-4.35.39-1.83.8-3.67,1.25-5.53Zm-1.79,8.04c.73,1.07,1.46,2.16,2.2,3.3-1.25,1.3-2.44,2.58-3.6,3.86.43-2.35.89-4.73,1.39-7.16Zm-9.94,60.92c.39-2.04.77-4.07,1.13-6.11.77-4.12,1.6-9.19,2.43-15.05.37-2.44.75-5.05,1.13-7.74,2.26,3.8,4.27,7.46,6.05,10.85C424.63,635.76,421.1,642.02,418.3,647.05Zm18.41-28.99c-2.34,3.07-4.5,6.14-6.49,9.12-1.92-3.86-4.18-8.03-6.76-12.32.48-3.42.99-6.99,1.56-10.75.36-2.29.75-4.65,1.16-7.04,1.72-1.91,3.5-3.86,5.43-5.83,1.2,1.91,2.42,3.9,3.61,6,2.82,4.92,5.24,9.67,7.3,13.88-1.96,2.19-3.91,4.46-5.8,6.93Zm16.16-17.14a106.49,106.49,0,0,0-9,8.7c-1.86-4.13-4.13-8.7-6.83-13.42-1.3-2.28-2.62-4.4-3.96-6.43.82-.82,1.63-1.64,2.48-2.46a124.242,124.242,0,0,1,10.7-9.14c3.75,6.16,6.77,11.64,9.01,15.56h0l2.03,3.53.04.06c-1.46,1.1-2.94,2.29-4.48,3.59Z" fill="#181818"/>
    </g>
  </g>
</svg>
